<svg width="16" height="16" viewBox="0 0 16 16" fill="none" xmlns="http://www.w3.org/2000/svg">
<g id="fi:eye-off" clip-path="url(#clip0_1240_1844)">
<path id="Vector" d="M6.60008 2.82667C7.05897 2.71926 7.52879 2.66557 8.00008 2.66667C12.6667 2.66667 15.3334 8.00001 15.3334 8.00001C14.9287 8.75708 14.4461 9.46983 13.8934 10.1267M9.41341 9.41334C9.23032 9.60984 9.00951 9.76744 8.76418 9.87676C8.51885 9.98607 8.25402 10.0448 7.98547 10.0496C7.71693 10.0543 7.45019 10.0049 7.20115 9.90433C6.95212 9.80374 6.7259 9.65403 6.53598 9.46411C6.34606 9.27419 6.19634 9.04797 6.09575 8.79893C5.99516 8.5499 5.94577 8.28315 5.9505 8.01461C5.95524 7.74607 6.01402 7.48124 6.12333 7.23591C6.23264 6.99057 6.39025 6.76977 6.58675 6.58667M11.9601 11.96C10.8205 12.8287 9.43282 13.3099 8.00008 13.3333C3.33341 13.3333 0.666748 8.00001 0.666748 8.00001C1.49601 6.4546 2.64617 5.10441 4.04008 4.04001L11.9601 11.96Z" stroke="#050505" stroke-width="1.2" stroke-linecap="round" stroke-linejoin="round"/>
<path id="Vector_2" d="M0.666748 0.666656L15.3334 15.3333" stroke="#050505" stroke-width="1.2" stroke-linecap="round" stroke-linejoin="round"/>
</g>
<defs>
<clipPath id="clip0_1240_1844">
<rect width="16" height="16" fill="white"/>
</clipPath>
</defs>
</svg>
