<svg width="30" height="30" viewBox="0 0 30 30" fill="none" xmlns="http://www.w3.org/2000/svg">
<g id="google">
<path id="vector" d="M28.1264 15.2915C28.1264 14.2124 28.0371 13.4249 27.8437 12.6082H15.2693V17.479H22.6502C22.5014 18.6894 21.6979 20.5124 19.9121 21.7373L19.8871 21.9004L23.8629 24.9188L24.1383 24.9457C26.668 22.6561 28.1264 19.2873 28.1264 15.2915Z" fill="#4285F4"/>
<path id="vector_2" d="M15.2685 28.125C18.8845 28.125 21.9201 26.9582 24.1375 24.9458L19.9113 21.7373C18.7803 22.5103 17.2625 23.0498 15.2685 23.0498C11.7268 23.0498 8.72092 20.7603 7.6494 17.5957L7.49234 17.6088L3.35826 20.7442L3.3042 20.8915C5.50655 25.179 10.0304 28.125 15.2685 28.125Z" fill="#34A853"/>
<path id="vector_3" d="M7.64997 17.5958C7.36723 16.7791 7.20361 15.9041 7.20361 14.9999C7.20361 14.0957 7.36723 13.2207 7.63509 12.4041L7.6276 12.2302L3.44171 9.04437L3.30476 9.10821C2.39706 10.8874 1.87622 12.8854 1.87622 14.9999C1.87622 17.1145 2.39706 19.1124 3.30476 20.8916L7.64997 17.5958Z" fill="#FBBC05"/>
<path id="vector_4" d="M15.2685 6.94997C17.7834 6.94997 19.4798 8.01454 20.4471 8.90419L24.2268 5.2875C21.9055 3.17292 18.8846 1.875 15.2685 1.875C10.0304 1.875 5.50656 4.82081 3.3042 9.10828L7.63455 12.4042C8.72096 9.23958 11.7269 6.94997 15.2685 6.94997Z" fill="#EB4335"/>
</g>
</svg>
