<svg width="16" height="16" viewBox="0 0 16 16" fill="none" xmlns="http://www.w3.org/2000/svg">
<g id="calendar_today_FILL1_wght400_GRAD200_opsz48 1">
<path id="Vector" d="M2.95007 14.9163C2.6309 14.9163 2.34833 14.7934 2.10235 14.5474C1.85638 14.3014 1.7334 14.0188 1.7334 13.6997V3.26634C1.7334 2.94717 1.85638 2.66461 2.10235 2.41864C2.34833 2.17266 2.6309 2.04967 2.95007 2.04967H3.76673V1.08301H5.06673V2.04967H10.9334V1.08301H12.2334V2.04967H13.0501C13.3692 2.04967 13.6518 2.17266 13.8978 2.41864C14.1437 2.66461 14.2667 2.94717 14.2667 3.26634V13.6997C14.2667 14.0188 14.1437 14.3014 13.8978 14.5474C13.6518 14.7934 13.3692 14.9163 13.0501 14.9163H2.95007ZM2.95007 13.6997H13.0501V6.33301H2.95007V13.6997Z" fill="#65676B"/>
</g>
</svg>
