<svg width="16" height="16" viewBox="0 0 16 16" fill="none" xmlns="http://www.w3.org/2000/svg">
<g id="favorite_FILL1_wght400_GRAD200_opsz48 1">
<path id="Vector" d="M7.99974 14.2835L7.18307 13.5335C5.96085 12.4001 4.9553 11.4307 4.16641 10.6251C3.37752 9.81958 2.75252 9.10291 2.29141 8.47513C1.8303 7.84735 1.51085 7.27791 1.33307 6.7668C1.1553 6.25569 1.06641 5.73902 1.06641 5.2168C1.06641 4.16124 1.42752 3.27235 2.14974 2.55013C2.87196 1.82791 3.76085 1.4668 4.81641 1.4668C5.41641 1.4668 5.99141 1.60846 6.54141 1.8918C7.09141 2.17513 7.57752 2.58902 7.99974 3.13346C8.47752 2.5668 8.98307 2.14735 9.51641 1.87513C10.0497 1.60291 10.6053 1.4668 11.1831 1.4668C12.2386 1.4668 13.1275 1.82791 13.8497 2.55013C14.572 3.27235 14.9331 4.16124 14.9331 5.2168C14.9331 5.73902 14.8442 6.25569 14.6664 6.7668C14.4886 7.27791 14.1692 7.84735 13.7081 8.47513C13.247 9.10291 12.622 9.81958 11.8331 10.6251C11.0442 11.4307 10.0386 12.4001 8.81641 13.5335L7.99974 14.2835Z" fill="#65676B"/>
</g>
</svg>
