<svg width="16" height="17" viewBox="0 0 16 17" fill="none" xmlns="http://www.w3.org/2000/svg">
<g id="thumb_up_FILL1_wght400_GRAD200_opsz48 3" clip-path="url(#clip0_665_10086)">
<path id="Vector" d="M12.1498 14.8996H4.01647V5.86628L8.8498 0.849609L9.56647 1.46628C9.68731 1.56771 9.77029 1.67918 9.81544 1.80069C9.86057 1.92219 9.88314 2.0625 9.88314 2.22161V2.41628L9.11647 5.86628H14.3831C14.6965 5.86628 14.9776 5.99072 15.2265 6.23961C15.4754 6.4885 15.5998 6.76961 15.5998 7.08294V8.50511C15.5998 8.63057 15.5831 8.77792 15.5498 8.94718C15.5165 9.11643 15.472 9.26169 15.4165 9.38294L13.422 14.012C13.3034 14.2595 13.1272 14.4693 12.8935 14.6414C12.6598 14.8135 12.4119 14.8996 12.1498 14.8996ZM3.01647 5.86628V14.8996H1.0498V5.86628H3.01647Z" fill="#65676B"/>
</g>
<defs>
<clipPath id="clip0_665_10086">
<rect width="16" height="16" fill="white" transform="translate(0 0.5)"/>
</clipPath>
</defs>
</svg>
