<svg width="20" height="5" viewBox="0 0 20 5" fill="none" xmlns="http://www.w3.org/2000/svg">
<g id="Vector">
<path d="M3.33333 2.49967C3.33333 1.5792 2.58714 0.833008 1.66667 0.833008C0.746192 0.833008 0 1.5792 0 2.49967C0 3.42015 0.746192 4.16634 1.66667 4.16634C2.58714 4.16634 3.33333 3.42015 3.33333 2.49967Z" fill="#65676B"/>
<path d="M11.6667 2.49967C11.6667 1.5792 10.9205 0.833008 10 0.833008C9.07953 0.833008 8.33333 1.5792 8.33333 2.49967C8.33333 3.42015 9.07953 4.16634 10 4.16634C10.9205 4.16634 11.6667 3.42015 11.6667 2.49967Z" fill="#65676B"/>
<path d="M20 2.49967C20 1.5792 19.2538 0.833008 18.3333 0.833008C17.4129 0.833008 16.6667 1.5792 16.6667 2.49967C16.6667 3.42015 17.4129 4.16634 18.3333 4.16634C19.2538 4.16634 20 3.42015 20 2.49967Z" fill="#65676B"/>
</g>
</svg>
